<svg fill="none" height="18" viewBox="0 0 23 18" width="23" xmlns="http://www.w3.org/2000/svg">
    <path
        d="M16.6598 0C18.1019 0 19.4893 0.53 20.5098 1.481C21.5315 2.43 22.1026 3.71 22.1026 5.05V12.95C22.1026 15.74 19.6613 18 16.6598 18H6.03548C3.03393 18 0.59375 15.74 0.59375 12.95V5.05C0.59375 2.26 3.02317 0 6.03548 0H16.6598ZM17.8761 5.2C17.6503 5.189 17.4352 5.26 17.2728 5.4L12.4236 9C11.7999 9.481 10.9062 9.481 10.2727 9L5.43324 5.4C5.09877 5.17 4.63633 5.2 4.3578 5.47C4.06743 5.74 4.03516 6.17 4.28144 6.47L4.42232 6.6L9.31558 10.15C9.91783 10.59 10.6481 10.83 11.4127 10.83C12.1752 10.83 12.9183 10.59 13.5195 10.15L18.3708 6.54L18.4568 6.46C18.7139 6.17 18.7139 5.75 18.445 5.46C18.2955 5.311 18.0901 5.22 17.8761 5.2Z"
        fill="#C7C7C7" />
</svg>
